<svg width="64" height="64" viewBox="0 0 64 64" fill="none" xmlns="http://www.w3.org/2000/svg">
<path fill-rule="evenodd" clip-rule="evenodd" d="M38.584 32.678C44.7032 30.1052 49 24.0544 49 17C49 7.61116 41.3888 0 32 0C22.6112 0 15 7.61116 15 17C15 24.0544 19.2968 30.1052 25.416 32.678C12.0132 35.4811 1.69125 46.6698 0.188607 60.5055C-0.0201001 62.4272 1.567 64 3.5 64C5.433 64 6.97427 62.4241 7.2417 60.5097C8.93964 48.3549 19.3773 39 32 39C44.6227 39 55.0604 48.3549 56.7583 60.5097C57.0257 62.4241 58.567 64 60.5 64C62.433 64 64.0201 62.4272 63.8114 60.5055C62.3088 46.6698 51.9868 35.4811 38.584 32.678ZM42 17C42 22.5228 37.5229 27 32 27C26.4772 27 22 22.5228 22 17C22 11.4772 26.4772 7 32 7C37.5229 7 42 11.4772 42 17Z" fill="#D9D9D9"/>
</svg>
