<svg width="64" height="65" viewBox="0 0 64 65" fill="none" xmlns="http://www.w3.org/2000/svg">
<path fill-rule="evenodd" clip-rule="evenodd" d="M15.5 7.5C10.8056 7.5 7 11.3056 7 16V49.5C7 54.1944 10.8056 58 15.5 58H60.5C62.433 58 64 59.567 64 61.5C64 63.433 62.433 65 60.5 65H15.5C6.93958 65 0 58.0604 0 49.5V16C0 7.43959 6.93959 0.5 15.5 0.5H48.5C57.0604 0.5 64 7.43959 64 16V38.5C64 44.8513 58.8513 50 52.5 50C46.1487 50 41 44.8513 41 38.5V18.7692C41 16.8362 42.567 15.2692 44.5 15.2692C46.433 15.2692 48 16.8362 48 18.7692V38.5C48 40.9853 50.0147 43 52.5 43C54.9853 43 57 40.9853 57 38.5V16C57 11.3056 53.1944 7.5 48.5 7.5H15.5Z" fill="white"/>
<path fill-rule="evenodd" clip-rule="evenodd" d="M31 43C36.5228 43 41 38.5228 41 33C41 27.4772 36.5228 23 31 23C25.4772 23 21 27.4772 21 33C21 38.5228 25.4772 43 31 43ZM31 50C40.3888 50 48 42.3888 48 33C48 23.6112 40.3888 16 31 16C21.6112 16 14 23.6112 14 33C14 42.3888 21.6112 50 31 50Z" fill="white"/>
</svg>
