<svg width="64" height="64" viewBox="0 0 64 64" fill="none" xmlns="http://www.w3.org/2000/svg">
<path d="M0 59C0 57.8954 0.895431 57 2 57H5C6.10457 57 7 57.8954 7 59V62C7 63.1046 6.10457 64 5 64H2C0.89543 64 0 63.1046 0 62V59Z" fill="#D9D9D9"/>
<path d="M14 59C14 57.8954 14.8954 57 16 57H19C20.1046 57 21 57.8954 21 59V62C21 63.1046 20.1046 64 19 64H16C14.8954 64 14 63.1046 14 62V59Z" fill="#D9D9D9"/>
<path d="M28 59C28 57.8954 28.8954 57 30 57H33C34.1046 57 35 57.8954 35 59V62C35 63.1046 34.1046 64 33 64H30C28.8954 64 28 63.1046 28 62V59Z" fill="#D9D9D9"/>
<path d="M49 3H57V61H49V3Z" fill="#D9D9D9"/>
<path d="M42 60C42 58.3431 43.3431 57 45 57H61C62.6569 57 64 58.3431 64 60V61C64 62.6569 62.6569 64 61 64H56.9083C56.3161 64 55.737 63.8247 55.2442 63.4962L54.6641 63.1094C53.6564 62.4376 52.3436 62.4376 51.3359 63.1094L50.7558 63.4962C50.263 63.8247 49.6839 64 49.0917 64H45C43.3431 64 42 62.6569 42 61V60Z" fill="#D9D9D9"/>
<path d="M64 4C64 5.65685 62.6569 7 61 7L45 7C43.3431 7 42 5.65686 42 4V3C42 1.34315 43.3431 1.88594e-06 45 1.83985e-06L49.0917 1.72602e-06C49.6839 1.70955e-06 50.263 0.175316 50.7558 0.503851L51.3359 0.890601C52.3436 1.5624 53.6564 1.5624 54.6641 0.8906L55.2442 0.503849C55.737 0.175314 56.3161 2.13753e-07 56.9083 1.97277e-07L61 8.34544e-08C62.6569 3.73638e-08 64 1.34315 64 3V4Z" fill="#D9D9D9"/>
<path d="M42 59C42 57.8954 42.8954 57 44 57C45.1046 57 46 57.8954 46 59V62C46 63.1046 45.1046 64 44 64C42.8954 64 42 63.1046 42 62V59Z" fill="#D9D9D9"/>
<path d="M60 59C60 57.8954 60.8954 57 62 57C63.1046 57 64 57.8954 64 59V62C64 63.1046 63.1046 64 62 64C60.8954 64 60 63.1046 60 62V59Z" fill="#D9D9D9"/>
<path d="M42 2C42 0.89543 42.8954 0 44 0C45.1046 0 46 0.895431 46 2V5C46 6.10457 45.1046 7 44 7C42.8954 7 42 6.10457 42 5V2Z" fill="#D9D9D9"/>
<path d="M60 2C60 0.89543 60.8954 0 62 0C63.1046 0 64 0.895431 64 2V5C64 6.10457 63.1046 7 62 7C60.8954 7 60 6.10457 60 5V2Z" fill="#D9D9D9"/>
</svg>
